<svg xmlns="http://www.w3.org/2000/svg" width="25" height="25" viewBox="0 0 25 25" aria-hidden="true" focusable="false">
  <g data-name="Group 7151">
    <circle id="Ellipse_199" data-name="Ellipse 199" cx="12.5" cy="12.5" r="12.5" fill="#274891"/>
    <g transform="translate(6.331 8.066)">
      <path id="Path_5038" data-name="Path 5038" d="M13.415,12.867l-1.5-1.5a.358.358,0,0,0-.505,0L5.872,16.9a.126.126,0,0,1-.176,0L2.822,14.052a.226.226,0,0,0-.327,0L.855,15.69a.226.226,0,0,0,0,.327l4.788,4.764a.214.214,0,0,0,.158.047.279.279,0,0,0,.17-.047l7.445-7.445A.337.337,0,0,0,13.415,12.867Z" transform="translate(-0.785 -11.26)" fill="#fff"/>
    </g>
  </g>
</svg>
